name analog
datacolumns 19
datarows 65
range 0.6990000000000001 0.731
endheader
time	ground_force_vx	ground_force_vy	ground_force_vz	ground_force_px	ground_force_py	ground_force_pz	l_ground_force_vx	l_ground_force_vy	l_ground_force_vz	l_ground_force_px	l_ground_force_py	l_ground_force_pz	ground_torque_x	ground_torque_y	ground_torque_z	l_ground_torque_x	l_ground_torque_y	l_ground_torque_z
0.6990000000000001	-0.0	-0.0	-0.0	5.411756038665772	9.837898254394531	-158.63734436035156	-0.0	-0.0	-0.0	-0.0	-0.0	-0.0	-0.0	-0.0	-0.0	-0.0	-0.0	-0.0
0.6995	-0.0	-0.0	-0.0	6.032561779022217	10.498918533325195	-159.28414916992188	-0.0	-0.0	-0.0	-0.0	-0.0	-0.0	-0.0	-0.0	-0.0	-0.0	-0.0	-0.0
0.7000000000000001	-0.0	-0.0	-0.0	6.066314697265625	11.125755310058594	-161.41453552246094	-0.0	-0.0	-0.0	-0.0	-0.0	-0.0	-0.0	-0.0	-0.0	-0.0	-0.0	-0.0
0.7005	-0.0	-0.0	-0.0	6.068972587585449	11.780914306640623	-165.99456787109375	-0.0	-0.0	-0.0	-0.0	-0.0	-0.0	-0.0	-0.0	-0.0	-0.0	-0.0	-0.0
0.7010000000000001	-0.0	-0.0	-0.0	6.580883979797363	11.943473815917969	-165.23451232910156	-0.0	-0.0	-0.0	-0.0	-0.0	-0.0	-0.0	-0.0	-0.0	-0.0	-0.0	-0.0
0.7015	-0.0	-0.0	-0.0	6.94017505645752	12.352669715881348	-168.53109741210938	-0.0	-0.0	-0.0	-0.0	-0.0	-0.0	-0.0	-0.0	-0.0	-0.0	-0.0	-0.0
0.7020000000000001	-0.0	-0.0	-0.0	6.854637145996094	12.478256225585938	-166.84507751464844	-0.0	-0.0	-0.0	-0.0	-0.0	-0.0	-0.0	-0.0	-0.0	-0.0	-0.0	-0.0
0.7025	-0.0	-0.0	-0.0	7.174558639526367	12.869559288024902	-167.6168975830078	-0.0	-0.0	-0.0	-0.0	-0.0	-0.0	-0.0	-0.0	-0.0	-0.0	-0.0	-0.0
0.7030000000000001	-0.0	-0.0	-0.0	7.457499027252197	13.28167724609375	-168.61007690429688	-0.0	-0.0	-0.0	-0.0	-0.0	-0.0	-0.0	-0.0	-0.0	-0.0	-0.0	-0.0
0.7035	-0.0	-0.0	-0.0	6.870181083679199	13.155259132385254	-168.8875732421875	-0.0	-0.0	-0.0	-0.0	-0.0	-0.0	-0.0	-0.0	-0.0	-0.0	-0.0	-0.0
0.704	-0.0	-0.0	-0.0	6.922492504119873	13.512533187866213	-168.6090545654297	-0.0	-0.0	-0.0	-0.0	-0.0	-0.0	-0.0	-0.0	-0.0	-0.0	-0.0	-0.0
0.7045	-0.0	-0.0	-0.0	7.475351810455322	14.38540267944336	-169.7376251220703	-0.0	-0.0	-0.0	-0.0	-0.0	-0.0	-0.0	-0.0	-0.0	-0.0	-0.0	-0.0
0.705	-0.0	-0.0	-0.0	6.904978275299072	14.314470291137695	-168.18528747558594	-0.0	-0.0	-0.0	-0.0	-0.0	-0.0	-0.0	-0.0	-0.0	-0.0	-0.0	-0.0
0.7055	-0.0	-0.0	-0.0	6.762187004089356	14.760055541992188	-170.51539611816406	-0.0	-0.0	-0.0	-0.0	-0.0	-0.0	-0.0	-0.0	-0.0	-0.0	-0.0	-0.0
0.706	-0.0	-0.0	-0.0	6.244301795959473	14.741561889648438	-171.43629455566406	-0.0	-0.0	-0.0	-0.0	-0.0	-0.0	-0.0	-0.0	-0.0	-0.0	-0.0	-0.0
0.7065	-0.0	-0.0	-0.0	6.369311332702637	15.151371002197266	-172.7781524658203	-0.0	-0.0	-0.0	-0.0	-0.0	-0.0	-0.0	-0.0	-0.0	-0.0	-0.0	-0.0
0.707	-0.0	-0.0	-0.0	6.137882709503174	15.169795036315918	-172.56134033203125	-0.0	-0.0	-0.0	-0.0	-0.0	-0.0	-0.0	-0.0	-0.0	-0.0	-0.0	-0.0
0.7075	-0.0	-0.0	-0.0	6.155525207519531	15.84764003753662	-172.4214324951172	-0.0	-0.0	-0.0	-0.0	-0.0	-0.0	-0.0	-0.0	-0.0	-0.0	-0.0	-0.0
0.708	-0.0	-0.0	-0.0	6.01213264465332	16.329999923706055	-172.6920166015625	-0.0	-0.0	-0.0	-0.0	-0.0	-0.0	-0.0	-0.0	-0.0	-0.0	-0.0	-0.0
0.7085	-0.0	-0.0	-0.0	6.064479827880859	15.96996784210205	-173.83370971679688	-0.0	-0.0	-0.0	-0.0	-0.0	-0.0	-0.0	-0.0	-0.0	-0.0	-0.0	-0.0
0.709	-0.0	-0.0	-0.0	6.38422441482544	16.27602195739746	-172.98109436035156	-0.0	-0.0	-0.0	-0.0	-0.0	-0.0	-0.0	-0.0	-0.0	-0.0	-0.0	-0.0
0.7095	-0.0	-0.0	-0.0	6.836877346038818	16.776254653930664	-173.2051239013672	-0.0	-0.0	-0.0	-0.0	-0.0	-0.0	-0.0	-0.0	-0.0	-0.0	-0.0	-0.0
0.71	-0.0	-0.0	-0.0	7.047630310058594	16.397319793701172	-173.49046325683594	-0.0	-0.0	-0.0	-0.0	-0.0	-0.0	-0.0	-0.0	-0.0	-0.0	-0.0	-0.0
0.7105	-0.0	-0.0	-0.0	7.229091644287109	16.434431076049805	-173.91302490234375	-0.0	-0.0	-0.0	-0.0	-0.0	-0.0	-0.0	-0.0	-0.0	-0.0	-0.0	-0.0
0.711	-0.0	-0.0	-0.0	7.246485233306885	16.66738510131836	-171.56454467773438	21.12805938720703	13.653114318847656	-23.102622985839844	-0.0	-0.0	-0.0	-0.0	-0.0	-0.0	6457.34033203125	-234.85235595703125	6528.0546875
0.7115	-0.0	-0.0	-0.0	7.45236873626709	16.235340118408203	-172.36573791503906	-0.0	-0.0	-0.0	-0.0	-0.0	-0.0	-0.0	-0.0	-0.0	-0.0	-0.0	-0.0
0.712	-0.0	-0.0	-0.0	7.634089946746826	16.417043685913086	-171.93106079101562	-0.0	-0.0	-0.0	-0.0	-0.0	-0.0	-0.0	-0.0	-0.0	-0.0	-0.0	-0.0
0.7125	-0.0	-0.0	-0.0	7.977869987487793	16.25983428955078	-171.5780487060547	-0.0	-0.0	-0.0	-0.0	-0.0	-0.0	-0.0	-0.0	-0.0	-0.0	-0.0	-0.0
0.713	-0.0	-0.0	-0.0	8.169066429138184	16.009563446044922	-170.2154541015625	-0.0	-0.0	-0.0	-0.0	-0.0	-0.0	-0.0	-0.0	-0.0	-0.0	-0.0	-0.0
0.7135	-0.0	-0.0	-0.0	8.474998474121094	16.344627380371094	-171.51165771484375	-0.0	-0.0	-0.0	-0.0	-0.0	-0.0	-0.0	-0.0	-0.0	-0.0	-0.0	-0.0
0.714	-0.0	-0.0	-0.0	8.921051025390625	16.38315200805664	-171.3590087890625	4.90007209777832	3.9953627586364746	-21.43153953552246	-0.0	-0.0	-0.0	-0.0	-0.0	-0.0	6531.07568359375	-164.12001037597656	1145.7635498046875
0.7145	-0.0	-0.0	-0.0	9.511954307556152	16.489124298095703	-170.16627502441406	3.193588256835937	1.6277523040771484	-25.421707153320312	-0.0	-0.0	-0.0	-0.0	-0.0	-0.0	6847.3251953125	-332.3352966308594	560.6635131835938
0.715	-0.0	-0.0	-0.0	10.208971977233888	16.472393035888672	-171.4248504638672	0.2539166510105133	-0.0167473033070564	-25.75288772583008	-0.0	-0.0	-0.0	-0.0	-0.0	-0.0	7136.57568359375	-198.0567321777344	-241.2207946777344
0.7155	-0.0	-0.0	-0.0	9.902366638183594	16.856565475463867	-173.6323699951172	-2.361659288406372	-0.6133924126625061	-26.95066261291504	-0.0	-0.0	-0.0	-0.0	-0.0	-0.0	7009.83984375	-51.37722396850586	-1014.3871459960938
0.716	-0.0	-0.0	-0.0	10.42713737487793	16.673503875732422	-174.11770629882812	-4.901029586791992	-1.61163067817688	-28.499025344848636	-0.0	-0.0	-0.0	-0.0	-0.0	-0.0	7190.2626953125	-358.2184143066406	-1807.8192138671875
0.7165	-0.0	-0.0	-0.0	10.404473304748535	16.601133346557617	-174.51148986816406	-6.553380966186523	-2.1417157649993896	-29.263185501098636	-0.0	-0.0	-0.0	-0.0	-0.0	-0.0	7995.28076171875	-183.9906005859375	-2265.240966796875
0.717	-0.0	-0.0	-0.0	10.13040256500244	16.39348030090332	-178.73486328125	-7.313149929046631	-2.014856576919556	-29.3719482421875	-0.0	-0.0	-0.0	-0.0	-0.0	-0.0	8301.8701171875	-200.61866760253903	-2625.47314453125
0.7175	-0.0	-0.0	-0.0	9.942181587219238	16.320436477661133	-180.632568359375	-7.185573577880859	-1.9760171175003047	-33.0391845703125	-0.0	-0.0	-0.0	-0.0	-0.0	-0.0	9123.40625	-141.47023010253906	-2545.656494140625
0.718	-0.0	-0.0	-0.0	10.242799758911133	16.723726272583008	-181.2462615966797	-5.910649299621582	-1.000452756881714	-34.98004913330078	-0.0	-0.0	-0.0	-0.0	-0.0	-0.0	9796.9892578125	-524.8992919921875	-2207.208984375
0.7185	-0.0	-0.0	-0.0	10.048114776611328	16.310863494873047	-182.0170135498047	-4.015039443969727	-0.2552333772182464	-37.294620513916016	-0.0	-0.0	-0.0	-0.0	-0.0	-0.0	10537.3642578125	-889.0814208984375	-1731.1435546875
0.719	-0.0	-0.0	-0.0	9.926387786865234	16.26201629638672	-182.2747802734375	-2.0007636547088623	0.9484313726425172	-39.959083557128906	-0.0	-0.0	-0.0	-0.0	-0.0	-0.0	11205.9921875	-1205.756591796875	-1115.178955078125
0.7195	-0.0	-0.0	-0.0	9.740187644958496	16.027244567871094	-184.68048095703125	-0.1447806358337402	1.8476781845092771	-41.64125442504883	-0.0	-0.0	-0.0	-0.0	-0.0	-0.0	11829.5341796875	-1863.6014404296875	-638.95068359375
0.72	-0.0	-0.0	-0.0	9.115641593933104	15.783878326416016	-184.7771148681641	1.290695071220398	2.979322671890259	-43.58000183105469	-0.0	-0.0	-0.0	-0.0	-0.0	-0.0	12847.4462890625	-2265.759033203125	-348.860595703125
0.7205	-0.0	-0.0	-0.0	9.213372230529783	15.865211486816406	-185.54718017578125	2.145267963409424	3.9099233150482178	-46.24577331542969	-0.0	-0.0	-0.0	-0.0	-0.0	-0.0	13752.6650390625	-2624.982421875	-126.97774505615234
0.721	-0.0	-0.0	-0.0	7.873833179473877	15.64599895477295	-187.12173461914065	2.185462713241577	3.990558624267578	-49.51595306396485	-0.0	-0.0	-0.0	-0.0	-0.0	-0.0	14656.392578125	-3034.2705078125	-234.74441528320312
0.7215	-0.0	-0.0	-0.0	7.704106330871582	15.840028762817385	-189.49449157714844	1.6050995588302612	4.23944091796875	-50.53100204467773	-0.0	-0.0	-0.0	-0.0	-0.0	-0.0	15327.51171875	-3129.517822265625	-537.1116943359375
0.722	-0.0	-0.0	-0.0	6.429718971252441	15.702898025512695	-189.7840118408203	0.3473008871078491	4.199034690856934	-53.32360458374024	-0.0	-0.0	-0.0	-0.0	-0.0	-0.0	15829.638671875	-3388.89306640625	-877.8789672851562
0.7225	-0.0	-0.0	-0.0	6.333946228027344	15.948222160339355	-193.6441650390625	-0.8463062644004822	4.135219573974609	-54.02767181396485	-0.0	-0.0	-0.0	-0.0	-0.0	-0.0	16451.375	-3401.251708984375	-1180.7730712890625
0.723	-0.0	-0.0	-0.0	5.9354424476623535	15.14221477508545	-193.22886657714844	-1.928836703300476	3.71635103225708	-54.9151611328125	-0.0	-0.0	-0.0	-0.0	-0.0	-0.0	17118.1953125	-3620.3212890625	-1518.6207275390625
0.7235	-0.0	-0.0	-0.0	5.808923721313477	15.671171188354492	-195.08038330078125	-2.426941156387329	3.129380226135254	-55.19169235229492	-0.0	-0.0	-0.0	-0.0	-0.0	-0.0	17108.501953125	-3720.737060546875	-1662.1173095703125
0.724	-0.0	-0.0	-0.0	4.906578063964844	15.776081085205078	-196.8876800537109	-2.6455209255218506	3.3562240600585938	-56.624755859375	-0.0	-0.0	-0.0	-0.0	-0.0	-0.0	17396.2734375	-4087.614501953125	-1676.026611328125
0.7245	-0.0	-0.0	-0.0	4.948745250701904	15.178630828857422	-197.01231384277344	-2.176347017288208	2.889068126678467	-57.93608093261719	-0.0	-0.0	-0.0	-0.0	-0.0	-0.0	17364.265625	-4023.839111328125	-1505.0994873046875
0.725	-0.0	-0.0	-0.0	4.649947643280029	14.470380783081056	-196.5354461669922	-2.0089004039764404	2.992889642715454	-56.911712646484375	-0.0	-0.0	-0.0	-0.0	-0.0	-0.0	17423.841796875	-4230.54931640625	-1380.988037109375
0.7255	-0.0	-0.0	-0.0	4.674288272857666	14.36555004119873	-196.88949584960935	-0.9758186340332032	3.018519878387451	-55.412357330322266	-0.0	-0.0	-0.0	-0.0	-0.0	-0.0	17409.765625	-4084.5576171875	-1226.6202392578125
0.726	-0.0	-0.0	-0.0	4.429499626159668	14.051605224609377	-195.23178100585935	-0.2768655717372894	3.132999420166016	-55.61873245239258	-0.0	-0.0	-0.0	-0.0	-0.0	-0.0	17228.82421875	-4401.81787109375	-953.8653564453124
0.7265	-0.0	-0.0	-0.0	4.192893981933594	13.888916015625	-193.66485595703125	-0.4701724350452423	2.596647024154663	-55.576202392578125	-0.0	-0.0	-0.0	-0.0	-0.0	-0.0	17103.3125	-4230.8203125	-898.4970092773438
0.727	-0.0	-0.0	-0.0	3.7468414306640634	13.82740592956543	-192.71429443359372	-0.250648021697998	2.918792486190796	-54.4676513671875	-0.0	-0.0	-0.0	-0.0	-0.0	-0.0	16972.662109375	-4325.07763671875	-805.543701171875
0.7275	-0.0	-0.0	-0.0	4.057645797729492	13.73855209350586	-189.07276916503903	-0.2815616428852081	3.1373438835144043	-53.647891998291016	-0.0	-0.0	-0.0	-0.0	-0.0	-0.0	16546.923828125	-4046.17919921875	-824.8370361328125
0.728	-0.0	-0.0	-0.0	3.925262451171875	12.96726131439209	-189.2439727783203	-0.1194244846701622	2.92990517616272	-51.73488235473633	-0.0	-0.0	-0.0	-0.0	-0.0	-0.0	16103.5732421875	-4123.69091796875	-716.412841796875
0.7285	-0.0	-0.0	-0.0	4.22117280960083	12.58042049407959	-186.418701171875	-0.4709963798522949	3.091259002685547	-51.325286865234375	-0.0	-0.0	-0.0	-0.0	-0.0	-0.0	16123.8349609375	-4181.31982421875	-844.4412841796875
0.729	-0.0	-0.0	-0.0	4.177700996398926	12.167272567749023	-183.11993408203125	-0.2079764455556869	2.609901189804077	-50.39809036254883	-0.0	-0.0	-0.0	-0.0	-0.0	-0.0	15414.728515625	-3982.5283203125	-702.1924438476562
0.7295	-0.0	-0.0	-0.0	4.655577659606934	11.484224319458008	-180.2893829345703	-0.2509273588657379	2.871708869934082	-49.69921875	-0.0	-0.0	-0.0	-0.0	-0.0	-0.0	15117.07421875	-3744.215576171875	-725.7968139648438
0.73	-0.0	-0.0	-0.0	5.33873987197876	11.40869140625	-176.29177856445312	-0.3829578459262848	2.899533033370972	-48.59169769287109	-0.0	-0.0	-0.0	-0.0	-0.0	-0.0	14881.04296875	-3904.941162109375	-686.1443481445312
0.7305	-0.0	-0.0	-0.0	5.977840423583984	10.621495246887209	-170.9955291748047	-0.398324191570282	2.884594678878784	-47.662635803222656	-0.0	-0.0	-0.0	-0.0	-0.0	-0.0	14607.4365234375	-3703.282470703125	-652.159423828125
0.731	-0.0	-0.0	-0.0	6.79495096206665	10.041356086730955	-165.75978088378906	-0.2510945796966553	2.901153087615967	-47.833770751953125	-0.0	-0.0	-0.0	-0.0	-0.0	-0.0	14585.359375	-3510.79638671875	-612.83642578125
